<svg width="489" height="448" viewBox="0 0 489 448" fill="none" xmlns="http://www.w3.org/2000/svg">
<path d="M24 10C24 4.47715 28.4772 0 34 0H414C419.523 0 424 4.47715 424 10V270H24V135V10Z" fill="#181616"/>
<path d="M25.5 270H424.5L484.142 434.593C486.504 441.113 481.675 448 474.74 448H11.5347C5.4476 448 0.772528 442.607 1.63574 436.582L25.5 270Z" fill="#BBAEAE"/>
<rect x="36" y="36" width="373" height="217" fill="white"/>
<path d="M110.355 96.1818H113.508L120.923 114.293H121.179L128.594 96.1818H131.747V118H129.275V101.423H129.062L122.244 118H119.858L113.04 101.423H112.827V118H110.355V96.1818ZM138.323 124.136C137.897 124.136 137.517 124.101 137.183 124.03C136.849 123.966 136.618 123.902 136.49 123.838L137.13 121.622C137.74 121.778 138.28 121.835 138.749 121.793C139.218 121.75 139.633 121.54 139.995 121.164C140.365 120.795 140.702 120.195 141.007 119.364L141.476 118.085L135.425 101.636H138.152L142.669 114.676H142.84L147.357 101.636H150.084L143.138 120.386C142.826 121.232 142.439 121.931 141.977 122.485C141.515 123.046 140.979 123.462 140.368 123.732C139.765 124.001 139.083 124.136 138.323 124.136ZM162.181 118V96.1818H169.553C171.265 96.1818 172.664 96.4908 173.751 97.1087C174.844 97.7195 175.654 98.5469 176.18 99.5909C176.705 100.635 176.968 101.8 176.968 103.085C176.968 104.371 176.705 105.539 176.18 106.59C175.661 107.641 174.859 108.479 173.772 109.104C172.685 109.722 171.293 110.031 169.596 110.031H164.312V107.688H169.511C170.683 107.688 171.624 107.485 172.334 107.08C173.044 106.675 173.559 106.129 173.879 105.44C174.205 104.744 174.369 103.959 174.369 103.085C174.369 102.212 174.205 101.43 173.879 100.741C173.559 100.053 173.04 99.5128 172.323 99.1222C171.606 98.7244 170.654 98.5256 169.468 98.5256H164.823V118H162.181ZM180.883 118V101.636H183.312V104.108H183.483C183.781 103.298 184.321 102.641 185.102 102.137C185.883 101.633 186.764 101.381 187.744 101.381C187.929 101.381 188.159 101.384 188.436 101.391C188.713 101.398 188.923 101.409 189.065 101.423V103.98C188.98 103.959 188.784 103.927 188.479 103.884C188.181 103.835 187.865 103.81 187.531 103.81C186.735 103.81 186.025 103.977 185.4 104.31C184.782 104.637 184.292 105.092 183.93 105.674C183.575 106.249 183.397 106.906 183.397 107.645V118H180.883ZM198.195 118.341C196.718 118.341 195.422 117.989 194.306 117.286C193.199 116.583 192.332 115.599 191.707 114.335C191.089 113.071 190.78 111.594 190.78 109.903C190.78 108.199 191.089 106.711 191.707 105.44C192.332 104.168 193.199 103.181 194.306 102.478C195.422 101.775 196.718 101.423 198.195 101.423C199.672 101.423 200.965 101.775 202.073 102.478C203.188 103.181 204.054 104.168 204.672 105.44C205.297 106.711 205.61 108.199 205.61 109.903C205.61 111.594 205.297 113.071 204.672 114.335C204.054 115.599 203.188 116.583 202.073 117.286C200.965 117.989 199.672 118.341 198.195 118.341ZM198.195 116.082C199.317 116.082 200.24 115.795 200.965 115.219C201.689 114.644 202.225 113.888 202.574 112.95C202.922 112.013 203.096 110.997 203.096 109.903C203.096 108.81 202.922 107.79 202.574 106.846C202.225 105.901 201.689 105.138 200.965 104.555C200.24 103.973 199.317 103.682 198.195 103.682C197.073 103.682 196.15 103.973 195.425 104.555C194.701 105.138 194.164 105.901 193.816 106.846C193.468 107.79 193.294 108.81 193.294 109.903C193.294 110.997 193.468 112.013 193.816 112.95C194.164 113.888 194.701 114.644 195.425 115.219C196.15 115.795 197.073 116.082 198.195 116.082ZM209.448 101.636H211.962V119.193C211.962 120.202 211.788 121.075 211.44 121.814C211.099 122.553 210.58 123.124 209.884 123.529C209.195 123.934 208.325 124.136 207.274 124.136C207.189 124.136 207.104 124.136 207.019 124.136C206.933 124.136 206.848 124.136 206.763 124.136V121.793C206.848 121.793 206.926 121.793 206.997 121.793C207.068 121.793 207.146 121.793 207.232 121.793C207.999 121.793 208.56 121.565 208.915 121.111C209.27 120.663 209.448 120.024 209.448 119.193V101.636ZM210.683 98.9091C210.193 98.9091 209.771 98.7422 209.416 98.4084C209.068 98.0746 208.894 97.6733 208.894 97.2045C208.894 96.7358 209.068 96.3345 209.416 96.0007C209.771 95.6669 210.193 95.5 210.683 95.5C211.173 95.5 211.593 95.6669 211.941 96.0007C212.296 96.3345 212.473 96.7358 212.473 97.2045C212.473 97.6733 212.296 98.0746 211.941 98.4084C211.593 98.7422 211.173 98.9091 210.683 98.9091ZM223.428 118.341C221.851 118.341 220.491 117.993 219.347 117.297C218.211 116.594 217.334 115.614 216.716 114.357C216.105 113.092 215.8 111.622 215.8 109.946C215.8 108.27 216.105 106.793 216.716 105.514C217.334 104.229 218.193 103.227 219.294 102.51C220.402 101.786 221.695 101.423 223.172 101.423C224.024 101.423 224.866 101.565 225.697 101.849C226.528 102.134 227.284 102.595 227.966 103.234C228.648 103.866 229.191 104.705 229.596 105.749C230.001 106.793 230.203 108.078 230.203 109.605V110.67H217.589V108.497H227.646C227.646 107.574 227.462 106.75 227.092 106.026C226.73 105.301 226.212 104.729 225.537 104.31C224.869 103.891 224.081 103.682 223.172 103.682C222.17 103.682 221.304 103.93 220.572 104.428C219.848 104.918 219.29 105.557 218.9 106.345C218.509 107.134 218.314 107.979 218.314 108.881V110.33C218.314 111.565 218.527 112.613 218.953 113.472C219.386 114.325 219.987 114.974 220.754 115.422C221.521 115.862 222.412 116.082 223.428 116.082C224.088 116.082 224.685 115.99 225.217 115.805C225.757 115.614 226.222 115.33 226.613 114.953C227.004 114.57 227.305 114.094 227.518 113.526L229.947 114.207C229.692 115.031 229.262 115.756 228.658 116.381C228.055 116.999 227.309 117.482 226.421 117.83C225.533 118.17 224.536 118.341 223.428 118.341ZM240.675 118.341C239.141 118.341 237.82 117.979 236.712 117.254C235.604 116.53 234.752 115.532 234.156 114.261C233.559 112.989 233.261 111.537 233.261 109.903C233.261 108.241 233.566 106.775 234.177 105.504C234.795 104.225 235.654 103.227 236.755 102.51C237.863 101.786 239.156 101.423 240.633 101.423C241.783 101.423 242.82 101.636 243.744 102.062C244.667 102.489 245.423 103.085 246.013 103.852C246.602 104.619 246.968 105.514 247.11 106.537H244.596C244.404 105.791 243.978 105.131 243.317 104.555C242.664 103.973 241.783 103.682 240.675 103.682C239.695 103.682 238.836 103.937 238.097 104.449C237.366 104.953 236.794 105.667 236.382 106.59C235.977 107.506 235.775 108.582 235.775 109.818C235.775 111.082 235.974 112.183 236.371 113.121C236.776 114.058 237.344 114.786 238.076 115.305C238.815 115.823 239.681 116.082 240.675 116.082C241.329 116.082 241.922 115.969 242.455 115.741C242.987 115.514 243.438 115.188 243.808 114.761C244.177 114.335 244.44 113.824 244.596 113.227H247.11C246.968 114.193 246.616 115.063 246.055 115.837C245.501 116.604 244.766 117.215 243.85 117.67C242.941 118.117 241.883 118.341 240.675 118.341ZM257.902 101.636V103.767H249.422V101.636H257.902ZM251.893 97.7159H254.408V113.312C254.408 114.023 254.511 114.555 254.717 114.911C254.93 115.259 255.2 115.493 255.526 115.614C255.86 115.727 256.212 115.784 256.581 115.784C256.858 115.784 257.085 115.77 257.263 115.741C257.44 115.706 257.582 115.678 257.689 115.656L258.2 117.915C258.03 117.979 257.792 118.043 257.487 118.107C257.181 118.178 256.794 118.213 256.325 118.213C255.615 118.213 254.919 118.06 254.237 117.755C253.563 117.45 253.001 116.984 252.554 116.359C252.114 115.734 251.893 114.946 251.893 113.994V97.7159ZM272.982 105.301L270.723 105.94C270.581 105.564 270.372 105.198 270.095 104.843C269.825 104.481 269.456 104.183 268.987 103.948C268.518 103.714 267.918 103.597 267.186 103.597C266.185 103.597 265.35 103.827 264.683 104.289C264.022 104.744 263.692 105.322 263.692 106.026C263.692 106.651 263.919 107.144 264.374 107.506C264.828 107.869 265.539 108.17 266.505 108.412L268.934 109.009C270.397 109.364 271.487 109.907 272.204 110.638C272.922 111.363 273.28 112.297 273.28 113.44C273.28 114.378 273.01 115.216 272.471 115.955C271.938 116.693 271.192 117.276 270.233 117.702C269.275 118.128 268.159 118.341 266.888 118.341C265.219 118.341 263.838 117.979 262.744 117.254C261.65 116.53 260.958 115.472 260.667 114.08L263.053 113.483C263.28 114.364 263.71 115.024 264.342 115.464C264.981 115.905 265.816 116.125 266.846 116.125C268.017 116.125 268.948 115.876 269.637 115.379C270.333 114.875 270.681 114.271 270.681 113.568C270.681 113 270.482 112.524 270.084 112.141C269.686 111.75 269.076 111.459 268.252 111.267L265.525 110.628C264.026 110.273 262.925 109.722 262.222 108.977C261.526 108.224 261.178 107.283 261.178 106.153C261.178 105.23 261.437 104.413 261.956 103.703C262.481 102.993 263.195 102.435 264.097 102.031C265.006 101.626 266.036 101.423 267.186 101.423C268.806 101.423 270.077 101.778 271 102.489C271.931 103.199 272.591 104.136 272.982 105.301ZM290.318 118.384C289.281 118.384 288.34 118.188 287.494 117.798C286.649 117.4 285.978 116.828 285.481 116.082C284.984 115.33 284.735 114.42 284.735 113.355C284.735 112.418 284.92 111.658 285.289 111.075C285.659 110.486 286.152 110.024 286.77 109.69C287.388 109.357 288.07 109.108 288.816 108.945C289.568 108.774 290.325 108.639 291.085 108.54C292.079 108.412 292.885 108.316 293.503 108.252C294.128 108.181 294.583 108.064 294.867 107.901C295.158 107.737 295.303 107.453 295.303 107.048V106.963C295.303 105.912 295.016 105.095 294.441 104.513C293.872 103.93 293.009 103.639 291.852 103.639C290.651 103.639 289.71 103.902 289.029 104.428C288.347 104.953 287.867 105.514 287.59 106.111L285.204 105.259C285.63 104.264 286.198 103.49 286.909 102.936C287.626 102.375 288.407 101.984 289.252 101.764C290.105 101.537 290.943 101.423 291.767 101.423C292.292 101.423 292.896 101.487 293.578 101.615C294.267 101.736 294.931 101.988 295.57 102.371C296.216 102.755 296.752 103.334 297.178 104.108C297.605 104.882 297.818 105.919 297.818 107.219V118H295.303V115.784H295.176C295.005 116.139 294.721 116.519 294.323 116.924C293.926 117.329 293.396 117.673 292.736 117.957C292.075 118.241 291.269 118.384 290.318 118.384ZM290.701 116.125C291.695 116.125 292.534 115.93 293.215 115.539C293.904 115.148 294.423 114.644 294.771 114.026C295.126 113.408 295.303 112.759 295.303 112.077V109.776C295.197 109.903 294.963 110.021 294.6 110.127C294.245 110.227 293.833 110.315 293.365 110.393C292.903 110.464 292.452 110.528 292.012 110.585C291.578 110.635 291.227 110.678 290.957 110.713C290.303 110.798 289.693 110.937 289.124 111.129C288.563 111.313 288.109 111.594 287.761 111.97C287.42 112.339 287.249 112.844 287.249 113.483C287.249 114.357 287.573 115.017 288.219 115.464C288.872 115.905 289.7 116.125 290.701 116.125ZM304.921 108.156V118H302.407V101.636H304.836V104.193H305.049C305.432 103.362 306.015 102.695 306.796 102.19C307.577 101.679 308.586 101.423 309.821 101.423C310.929 101.423 311.899 101.651 312.73 102.105C313.561 102.553 314.207 103.234 314.669 104.151C315.13 105.06 315.361 106.21 315.361 107.602V118H312.847V107.773C312.847 106.487 312.513 105.486 311.846 104.768C311.178 104.044 310.262 103.682 309.097 103.682C308.294 103.682 307.577 103.856 306.945 104.204C306.32 104.552 305.826 105.06 305.464 105.727C305.102 106.395 304.921 107.205 304.921 108.156ZM326.134 118.341C324.771 118.341 323.567 117.996 322.523 117.308C321.479 116.612 320.662 115.631 320.073 114.367C319.483 113.096 319.188 111.594 319.188 109.861C319.188 108.142 319.483 106.651 320.073 105.386C320.662 104.122 321.482 103.146 322.534 102.457C323.585 101.768 324.799 101.423 326.177 101.423C327.242 101.423 328.084 101.601 328.702 101.956C329.327 102.304 329.803 102.702 330.129 103.149C330.463 103.589 330.722 103.952 330.907 104.236H331.12V96.1818H333.634V118H331.205V115.486H330.907C330.722 115.784 330.46 116.161 330.119 116.615C329.778 117.062 329.291 117.464 328.659 117.819C328.027 118.167 327.186 118.341 326.134 118.341ZM326.475 116.082C327.484 116.082 328.336 115.82 329.032 115.294C329.728 114.761 330.257 114.026 330.619 113.089C330.982 112.144 331.163 111.054 331.163 109.818C331.163 108.597 330.985 107.528 330.63 106.612C330.275 105.688 329.749 104.971 329.053 104.46C328.357 103.941 327.498 103.682 326.475 103.682C325.41 103.682 324.522 103.955 323.812 104.502C323.109 105.042 322.58 105.777 322.225 106.707C321.877 107.631 321.703 108.668 321.703 109.818C321.703 110.983 321.88 112.041 322.235 112.993C322.597 113.937 323.13 114.69 323.833 115.251C324.544 115.805 325.424 116.082 326.475 116.082ZM169.126 154H166.356L174.367 132.182H177.095L185.106 154H182.336L175.816 135.634H175.646L169.126 154ZM170.149 145.477H181.313V147.821H170.149V145.477ZM189.82 154L184.834 137.636H187.476L191.013 150.165H191.184L194.678 137.636H197.363L200.814 150.122H200.985L204.522 137.636H207.164L202.178 154H199.706L196.127 141.429H195.871L192.292 154H189.82ZM215.303 154.384C214.266 154.384 213.325 154.188 212.48 153.798C211.635 153.4 210.964 152.828 210.466 152.082C209.969 151.33 209.721 150.42 209.721 149.355C209.721 148.418 209.905 147.658 210.275 147.075C210.644 146.486 211.138 146.024 211.755 145.69C212.373 145.357 213.055 145.108 213.801 144.945C214.554 144.774 215.31 144.639 216.07 144.54C217.064 144.412 217.87 144.316 218.488 144.252C219.113 144.181 219.568 144.064 219.852 143.901C220.143 143.737 220.289 143.453 220.289 143.048V142.963C220.289 141.912 220.001 141.095 219.426 140.513C218.858 139.93 217.995 139.639 216.837 139.639C215.637 139.639 214.696 139.902 214.014 140.428C213.332 140.953 212.853 141.514 212.576 142.111L210.189 141.259C210.616 140.264 211.184 139.49 211.894 138.936C212.611 138.375 213.392 137.984 214.238 137.764C215.09 137.537 215.928 137.423 216.752 137.423C217.277 137.423 217.881 137.487 218.563 137.615C219.252 137.736 219.916 137.988 220.555 138.371C221.201 138.755 221.738 139.334 222.164 140.108C222.59 140.882 222.803 141.919 222.803 143.219V154H220.289V151.784H220.161C219.991 152.139 219.706 152.519 219.309 152.924C218.911 153.329 218.382 153.673 217.721 153.957C217.061 154.241 216.255 154.384 215.303 154.384ZM215.687 152.125C216.681 152.125 217.519 151.93 218.201 151.539C218.89 151.148 219.408 150.644 219.756 150.026C220.111 149.408 220.289 148.759 220.289 148.077V145.776C220.182 145.903 219.948 146.021 219.586 146.127C219.231 146.227 218.819 146.315 218.35 146.393C217.888 146.464 217.437 146.528 216.997 146.585C216.564 146.635 216.212 146.678 215.942 146.713C215.289 146.798 214.678 146.937 214.11 147.129C213.549 147.313 213.094 147.594 212.746 147.97C212.405 148.339 212.235 148.844 212.235 149.483C212.235 150.357 212.558 151.017 213.204 151.464C213.858 151.905 214.685 152.125 215.687 152.125ZM227.392 154V137.636H229.821V140.108H229.991C230.29 139.298 230.829 138.641 231.611 138.137C232.392 137.633 233.273 137.381 234.253 137.381C234.437 137.381 234.668 137.384 234.945 137.391C235.222 137.398 235.432 137.409 235.574 137.423V139.98C235.489 139.959 235.293 139.927 234.988 139.884C234.69 139.835 234.373 139.81 234.04 139.81C233.244 139.81 232.534 139.977 231.909 140.31C231.291 140.637 230.801 141.092 230.439 141.674C230.084 142.249 229.906 142.906 229.906 143.645V154H227.392ZM244.235 154.341C242.871 154.341 241.668 153.996 240.623 153.308C239.579 152.612 238.763 151.631 238.173 150.367C237.584 149.096 237.289 147.594 237.289 145.861C237.289 144.142 237.584 142.651 238.173 141.386C238.763 140.122 239.583 139.146 240.634 138.457C241.685 137.768 242.9 137.423 244.278 137.423C245.343 137.423 246.185 137.601 246.802 137.956C247.427 138.304 247.903 138.702 248.23 139.149C248.564 139.589 248.823 139.952 249.008 140.236H249.221V132.182H251.735V154H249.306V151.486H249.008C248.823 151.784 248.56 152.161 248.219 152.615C247.878 153.062 247.392 153.464 246.76 153.819C246.128 154.167 245.286 154.341 244.235 154.341ZM244.576 152.082C245.584 152.082 246.437 151.82 247.133 151.294C247.829 150.761 248.358 150.026 248.72 149.089C249.082 148.144 249.263 147.054 249.263 145.818C249.263 144.597 249.086 143.528 248.731 142.612C248.376 141.688 247.85 140.971 247.154 140.46C246.458 139.941 245.599 139.682 244.576 139.682C243.511 139.682 242.623 139.955 241.913 140.502C241.209 141.042 240.68 141.777 240.325 142.707C239.977 143.631 239.803 144.668 239.803 145.818C239.803 146.983 239.981 148.041 240.336 148.993C240.698 149.937 241.231 150.69 241.934 151.251C242.644 151.805 243.525 152.082 244.576 152.082ZM268.28 141.301L266.021 141.94C265.879 141.564 265.67 141.198 265.393 140.843C265.123 140.481 264.753 140.183 264.285 139.948C263.816 139.714 263.216 139.597 262.484 139.597C261.483 139.597 260.648 139.827 259.981 140.289C259.32 140.744 258.99 141.322 258.99 142.026C258.99 142.651 259.217 143.144 259.672 143.506C260.126 143.869 260.837 144.17 261.802 144.412L264.231 145.009C265.695 145.364 266.785 145.907 267.502 146.638C268.219 147.363 268.578 148.297 268.578 149.44C268.578 150.378 268.308 151.216 267.768 151.955C267.236 152.693 266.49 153.276 265.531 153.702C264.572 154.128 263.457 154.341 262.186 154.341C260.517 154.341 259.136 153.979 258.042 153.254C256.948 152.53 256.256 151.472 255.964 150.08L258.351 149.483C258.578 150.364 259.008 151.024 259.64 151.464C260.279 151.905 261.114 152.125 262.143 152.125C263.315 152.125 264.246 151.876 264.935 151.379C265.631 150.875 265.979 150.271 265.979 149.568C265.979 149 265.78 148.524 265.382 148.141C264.984 147.75 264.373 147.459 263.55 147.267L260.822 146.628C259.324 146.273 258.223 145.722 257.52 144.977C256.824 144.224 256.476 143.283 256.476 142.153C256.476 141.23 256.735 140.413 257.253 139.703C257.779 138.993 258.493 138.435 259.395 138.031C260.304 137.626 261.334 137.423 262.484 137.423C264.104 137.423 265.375 137.778 266.298 138.489C267.229 139.199 267.889 140.136 268.28 141.301ZM275.687 132.182L275.473 147.864H273.002L272.789 132.182H275.687ZM274.238 154.17C273.712 154.17 273.261 153.982 272.885 153.606C272.508 153.229 272.32 152.778 272.32 152.253C272.32 151.727 272.508 151.276 272.885 150.9C273.261 150.523 273.712 150.335 274.238 150.335C274.763 150.335 275.214 150.523 275.591 150.9C275.967 151.276 276.155 151.727 276.155 152.253C276.155 152.601 276.066 152.92 275.889 153.212C275.718 153.503 275.488 153.737 275.196 153.915C274.912 154.085 274.593 154.17 274.238 154.17Z" fill="black"/>
</svg>
